<svg xmlns="http://www.w3.org/2000/svg" xmlns:xlink="http://www.w3.org/1999/xlink" width="500" zoomAndPan="magnify" viewBox="0 0 375 374.999991" height="500" preserveAspectRatio="xMidYMid meet" version="1.0"><defs><clipPath id="400e5e00d0"><path d="M 166.042969 57.972656 L 208.773438 57.972656 L 208.773438 100.703125 L 166.042969 100.703125 Z M 166.042969 57.972656 " clip-rule="nonzero"/></clipPath><clipPath id="30008a1c38"><path d="M 187.40625 57.972656 C 175.609375 57.972656 166.042969 67.539062 166.042969 79.335938 C 166.042969 91.136719 175.609375 100.703125 187.40625 100.703125 C 199.207031 100.703125 208.773438 91.136719 208.773438 79.335938 C 208.773438 67.539062 199.207031 57.972656 187.40625 57.972656 Z M 187.40625 57.972656 " clip-rule="nonzero"/></clipPath><clipPath id="8ebea210dc"><path d="M 268.019531 27.363281 L 375 27.363281 L 375 112.613281 L 268.019531 112.613281 Z M 268.019531 27.363281 " clip-rule="nonzero"/></clipPath><clipPath id="6698e005a6"><path d="M 337.828125 27.363281 L 305.191406 27.363281 C 284.660156 27.363281 268.019531 43.617188 268.019531 59.121094 C 268.019531 69.832031 276.742188 82.351562 289.347656 88.164062 L 289.347656 112.613281 L 314.59375 91.621094 L 337.828125 91.621094 C 358.359375 91.621094 375 75.367188 375 59.121094 C 375 43.617188 358.359375 27.363281 337.828125 27.363281 Z M 337.828125 27.363281 " clip-rule="nonzero"/></clipPath><clipPath id="1dda1d9406"><path d="M 23.695312 46.890625 L 91.214844 46.890625 L 91.214844 109.070312 L 23.695312 109.070312 Z M 23.695312 46.890625 " clip-rule="nonzero"/></clipPath><clipPath id="ed63ba1380"><path d="M 57.40625 46.890625 L 91.121094 66.503906 L 91.121094 89.453125 L 57.40625 109.070312 L 23.695312 89.453125 L 23.695312 66.503906 Z M 57.40625 46.890625 " clip-rule="nonzero"/></clipPath><clipPath id="9da7d47601"><path d="M 23.695312 46.890625 L 91.109375 46.890625 L 91.109375 109.140625 L 23.695312 109.140625 Z M 23.695312 46.890625 " clip-rule="nonzero"/></clipPath><clipPath id="5034e8ce64"><path d="M 57.402344 46.890625 L 91.109375 66.5 L 91.109375 89.445312 L 57.402344 109.058594 L 23.695312 89.445312 L 23.695312 66.5 Z M 57.402344 46.890625 " clip-rule="nonzero"/></clipPath><clipPath id="590c11ee09"><path d="M 0 27.363281 L 114.941406 27.363281 L 114.941406 81.058594 L 0 81.058594 Z M 0 27.363281 " clip-rule="nonzero"/></clipPath><clipPath id="11135a870f"><path d="M 57.40625 27.363281 L 114.8125 54.210938 L 57.40625 81.058594 L 0 54.210938 Z M 57.40625 27.363281 " clip-rule="nonzero"/></clipPath><clipPath id="713f9e7e34"><path d="M 0 27.363281 L 114.75 27.363281 L 114.75 81.363281 L 0 81.363281 Z M 0 27.363281 " clip-rule="nonzero"/></clipPath><clipPath id="f8c02a6403"><path d="M 57.40625 27.363281 L 114.808594 54.210938 L 57.40625 81.054688 L 0 54.210938 Z M 57.40625 27.363281 " clip-rule="nonzero"/></clipPath><clipPath id="0b5a7711cc"><path d="M 98.441406 80.097656 L 106.566406 80.097656 L 106.566406 88.21875 L 98.441406 88.21875 Z M 98.441406 80.097656 " clip-rule="nonzero"/></clipPath><clipPath id="441d98e5d8"><path d="M 102.503906 80.097656 C 100.261719 80.097656 98.441406 81.914062 98.441406 84.160156 C 98.441406 86.402344 100.261719 88.21875 102.503906 88.21875 C 104.746094 88.21875 106.566406 86.402344 106.566406 84.160156 C 106.566406 81.914062 104.746094 80.097656 102.503906 80.097656 Z M 102.503906 80.097656 " clip-rule="nonzero"/></clipPath><clipPath id="a9bbddb1fe"><path d="M 45 116 L 330 116 L 330 302.265625 L 45 302.265625 Z M 45 116 " clip-rule="nonzero"/></clipPath></defs><g clip-path="url(#400e5e00d0)"><g clip-path="url(#30008a1c38)"><path fill="#38b6ff" d="M 166.042969 57.972656 L 208.773438 57.972656 L 208.773438 100.703125 L 166.042969 100.703125 Z M 166.042969 57.972656 " fill-opacity="1" fill-rule="nonzero"/></g></g><g clip-path="url(#8ebea210dc)"><g clip-path="url(#6698e005a6)"><path fill="#7ed957" d="M 268.019531 27.363281 L 374.914062 27.363281 L 374.914062 112.613281 L 268.019531 112.613281 Z M 268.019531 27.363281 " fill-opacity="1" fill-rule="nonzero"/></g></g><g clip-path="url(#1dda1d9406)"><g clip-path="url(#ed63ba1380)"><path fill="#ff5757" d="M 23.695312 46.890625 L 91.214844 46.890625 L 91.214844 109.070312 L 23.695312 109.070312 Z M 23.695312 46.890625 " fill-opacity="1" fill-rule="nonzero"/></g></g><g clip-path="url(#9da7d47601)"><g clip-path="url(#5034e8ce64)"><path stroke-linecap="butt" transform="matrix(0.75, 0, 0, 0.75, 23.696286, 46.889558)" fill="none" stroke-linejoin="miter" d="M 44.941414 0.00142304 L 89.884125 26.147258 L 89.884125 56.74101 L 44.941414 82.892053 L -0.00129777 56.74101 L -0.00129777 26.147258 Z M 44.941414 0.00142304 " stroke="#ffde59" stroke-width="4" stroke-opacity="1" stroke-miterlimit="4"/></g></g><path stroke-linecap="butt" transform="matrix(0.000000001309, -0.75, 0.75, 0.000000001309, 102.123739, 85.293254)" fill="none" stroke-linejoin="miter" d="M 0.0003798 0.501681 L 41.453508 0.501681 " stroke="#000000" stroke-width="1" stroke-opacity="1" stroke-miterlimit="4"/><g clip-path="url(#590c11ee09)"><g clip-path="url(#11135a870f)"><path fill="#ff5757" d="M 0 27.363281 L 114.730469 27.363281 L 114.730469 81.058594 L 0 81.058594 Z M 0 27.363281 " fill-opacity="1" fill-rule="nonzero"/></g></g><g clip-path="url(#713f9e7e34)"><g clip-path="url(#f8c02a6403)"><path stroke-linecap="butt" transform="matrix(0.75, 0, 0, 0.75, 0.0000045, 27.362573)" fill="none" stroke-linejoin="miter" d="M 76.541666 0.000944756 L 153.078129 35.797822 L 76.541666 71.589491 L -0.000006 35.797822 Z M 76.541666 0.000944756 " stroke="#ffd94a" stroke-width="4" stroke-opacity="1" stroke-miterlimit="4"/></g></g><g clip-path="url(#0b5a7711cc)"><g clip-path="url(#441d98e5d8)"><path fill="#ffd94a" d="M 98.441406 80.097656 L 106.566406 80.097656 L 106.566406 88.21875 L 98.441406 88.21875 Z M 98.441406 80.097656 " fill-opacity="1" fill-rule="nonzero"/></g></g><g clip-path="url(#a9bbddb1fe)"><path fill="#38b6ff" d="M 54.4375 118.40625 C 62.796875 114.015625 73 117.132812 77.390625 125.492188 L 142.847656 249.320312 L 168.207031 201.433594 L 136.472656 141.359375 C 132.078125 133 135.195312 122.796875 143.554688 118.40625 C 151.914062 114.015625 162.117188 117.132812 166.507812 125.492188 L 187.476562 165.019531 L 208.304688 125.492188 C 212.695312 117.132812 223.039062 114.015625 231.257812 118.40625 C 239.617188 122.796875 242.734375 133.140625 238.339844 141.359375 L 206.605469 201.433594 L 231.964844 249.320312 L 297.421875 125.492188 C 301.8125 117.132812 312.15625 114.015625 320.375 118.40625 C 328.734375 122.796875 331.851562 133.140625 327.457031 141.359375 L 246.984375 293.523438 C 244.007812 299.050781 238.199219 302.59375 231.964844 302.59375 C 225.730469 302.59375 219.921875 299.050781 216.945312 293.523438 L 187.476562 237.703125 L 158.007812 293.523438 C 155.03125 299.050781 149.222656 302.59375 142.988281 302.59375 C 136.753906 302.59375 130.945312 299.050781 127.972656 293.523438 L 47.496094 141.359375 C 42.960938 133.140625 46.078125 122.796875 54.4375 118.40625 Z M 54.4375 118.40625 " fill-opacity="1" fill-rule="nonzero"/></g></svg>