<svg xmlns="http://www.w3.org/2000/svg" xmlns:xlink="http://www.w3.org/1999/xlink" width="500" zoomAndPan="magnify" viewBox="0 0 375 374.999991" height="500" preserveAspectRatio="xMidYMid meet" version="1.0"><defs><clipPath id="110306c4aa"><path d="M 20.625 57 L 354.375 57 L 354.375 374 L 20.625 374 Z M 20.625 57 " clip-rule="nonzero"/></clipPath></defs><path fill="#38b6ff" d="M 120.164062 136.792969 C 120.222656 136.910156 120.222656 136.96875 120.28125 137.085938 C 120.515625 137.4375 120.808594 137.730469 121.101562 138.023438 C 136.671875 157.652344 160.648438 170.285156 187.558594 170.285156 C 214.707031 170.285156 238.796875 157.414062 254.367188 137.554688 C 254.484375 137.378906 254.71875 137.320312 254.835938 137.085938 C 254.894531 136.96875 254.894531 136.910156 254.957031 136.792969 C 265.824219 122.511719 272.40625 104.769531 272.40625 85.496094 C 272.40625 66.222656 265.882812 48.417969 254.957031 34.199219 C 254.894531 34.082031 254.894531 34.023438 254.835938 33.90625 C 254.601562 33.550781 254.308594 33.257812 254.015625 33.023438 C 238.445312 13.28125 214.410156 0.648438 187.5 0.648438 C 160.589844 0.648438 136.613281 13.28125 121.042969 32.90625 C 120.75 33.199219 120.457031 33.433594 120.222656 33.847656 C 120.164062 33.964844 120.164062 34.023438 120.105469 34.140625 C 109.234375 48.417969 102.652344 66.164062 102.652344 85.4375 C 102.652344 104.707031 109.234375 122.511719 120.164062 136.792969 Z M 125.449219 41.71875 C 131.796875 44.949219 139.199219 47.59375 147.367188 49.59375 C 145.074219 59.171875 143.726562 69.804688 143.429688 81.027344 L 111.699219 81.027344 C 112.582031 66.457031 117.519531 52.941406 125.449219 41.71875 Z M 263.238281 81.027344 L 231.511719 81.027344 C 231.214844 69.804688 229.863281 59.171875 227.574219 49.59375 C 235.742188 47.535156 243.085938 44.890625 249.492188 41.71875 C 257.480469 52.941406 262.417969 66.457031 263.238281 81.027344 Z M 249.550781 129.210938 C 243.203125 125.980469 235.800781 123.335938 227.632812 121.335938 C 229.925781 111.761719 231.273438 101.125 231.570312 89.902344 L 263.300781 89.902344 C 262.417969 104.472656 257.480469 117.929688 249.550781 129.210938 Z M 183.09375 116.695312 C 173.691406 116.929688 164.585938 117.8125 156.0625 119.398438 C 153.890625 110.351562 152.539062 100.359375 152.246094 89.84375 L 183.09375 89.84375 Z M 183.09375 125.507812 L 183.09375 160.765625 C 172.988281 157.886719 163.996094 145.488281 158.414062 127.917969 C 166.171875 126.566406 174.457031 125.746094 183.09375 125.507812 Z M 191.90625 160.765625 L 191.90625 125.507812 C 200.542969 125.746094 208.828125 126.566406 216.585938 127.917969 C 211.003906 145.488281 202.011719 157.886719 191.90625 160.765625 Z M 191.90625 116.695312 L 191.90625 89.84375 L 222.753906 89.84375 C 222.460938 100.359375 221.109375 110.351562 218.9375 119.398438 C 210.414062 117.871094 201.308594 116.929688 191.90625 116.695312 Z M 222.753906 81.027344 L 191.90625 81.027344 L 191.90625 54.175781 C 201.308594 53.941406 210.414062 53 218.9375 51.472656 C 221.109375 60.523438 222.460938 70.511719 222.753906 81.027344 Z M 191.90625 45.363281 L 191.90625 10.105469 C 202.011719 12.925781 210.945312 25.382812 216.585938 42.894531 C 208.769531 44.304688 200.425781 45.1875 191.90625 45.363281 Z M 183.09375 10.164062 L 183.09375 45.421875 C 174.457031 45.1875 166.171875 44.363281 158.414062 43.011719 C 163.996094 25.441406 172.988281 12.988281 183.09375 10.164062 Z M 183.09375 54.175781 L 183.09375 81.027344 L 152.246094 81.027344 C 152.539062 70.511719 153.890625 60.523438 156.0625 51.472656 C 164.585938 53.058594 173.691406 54 183.09375 54.175781 Z M 143.429688 89.84375 C 143.726562 101.066406 145.074219 111.699219 147.367188 121.277344 C 139.199219 123.335938 131.855469 125.980469 125.449219 129.152344 C 117.519531 117.929688 112.582031 104.414062 111.699219 89.84375 Z M 131.089844 136.203125 C 136.554688 133.617188 142.84375 131.445312 149.71875 129.800781 C 153.300781 141.257812 158.238281 150.835938 164.171875 157.769531 C 151.304688 153.597656 139.964844 146.015625 131.089844 136.203125 Z M 210.828125 157.769531 C 216.761719 150.777344 221.699219 141.257812 225.28125 129.800781 C 232.15625 131.503906 238.445312 133.617188 243.910156 136.203125 C 235.035156 146.015625 223.695312 153.597656 210.828125 157.769531 Z M 243.910156 34.667969 C 238.503906 37.195312 232.15625 39.367188 225.28125 41.074219 C 221.699219 29.675781 216.761719 20.097656 210.828125 13.164062 C 223.695312 17.335938 235.035156 24.855469 243.910156 34.667969 Z M 164.171875 13.164062 C 158.238281 20.15625 153.300781 29.675781 149.71875 41.132812 C 142.84375 39.429688 136.613281 37.3125 131.089844 34.726562 C 139.964844 24.855469 151.304688 17.335938 164.171875 13.164062 Z M 164.171875 13.164062 " fill-opacity="1" fill-rule="nonzero"/><g clip-path="url(#110306c4aa)"><path fill="#38b6ff" d="M 338.863281 57.289062 L 284.746094 57.289062 C 282.335938 57.289062 280.339844 59.289062 280.339844 61.699219 C 280.339844 64.105469 282.335938 66.105469 284.746094 66.105469 L 338.863281 66.105469 C 342.503906 66.105469 345.445312 69.042969 345.445312 72.683594 L 345.445312 288.035156 C 345.445312 291.679688 342.503906 294.617188 338.863281 294.617188 L 36.136719 294.617188 C 32.496094 294.617188 29.554688 291.679688 29.554688 288.035156 L 29.554688 72.742188 C 29.554688 69.101562 32.496094 66.164062 36.136719 66.164062 L 89.019531 66.164062 C 91.429688 66.164062 93.425781 64.164062 93.425781 61.757812 C 93.425781 59.347656 91.429688 57.347656 89.019531 57.347656 L 36.136719 57.347656 C 27.617188 57.347656 20.742188 64.28125 20.742188 72.742188 L 20.742188 288.09375 C 20.742188 296.613281 27.675781 303.488281 36.136719 303.488281 L 147.015625 303.488281 C 145.722656 319.414062 139.847656 332.691406 128.976562 343.914062 L 97.011719 343.914062 C 94.601562 343.914062 92.605469 345.914062 92.605469 348.324219 L 92.605469 369.359375 C 92.605469 371.769531 94.601562 373.765625 97.011719 373.765625 L 278.046875 373.765625 C 280.457031 373.765625 282.453125 371.769531 282.453125 369.359375 L 282.453125 348.324219 C 282.453125 345.914062 280.457031 343.914062 278.046875 343.914062 L 245.964844 343.914062 C 233.507812 332.339844 227.515625 319.0625 227.632812 303.488281 L 338.863281 303.488281 C 347.382812 303.488281 354.257812 296.554688 354.257812 288.09375 L 354.257812 72.742188 C 354.257812 64.222656 347.382812 57.289062 338.863281 57.289062 Z M 273.640625 364.953125 L 101.359375 364.953125 L 101.359375 352.730469 L 273.640625 352.730469 Z M 233.683594 343.914062 L 140.726562 343.914062 C 149.835938 332.339844 154.832031 319.003906 155.945312 303.488281 L 218.757812 303.488281 C 218.640625 318.589844 223.636719 332.105469 233.683594 343.914062 Z M 233.683594 343.914062 " fill-opacity="1" fill-rule="nonzero"/></g><path fill="#38b6ff" d="M 331.753906 253.367188 L 331.753906 85.4375 C 331.753906 83.027344 329.753906 81.027344 327.347656 81.027344 L 286.390625 81.027344 C 283.980469 81.027344 281.984375 83.027344 281.984375 85.4375 C 281.984375 87.84375 283.980469 89.84375 286.390625 89.84375 L 322.9375 89.84375 L 322.9375 248.960938 L 52.0625 248.960938 L 52.0625 89.84375 L 83.027344 89.84375 C 85.4375 89.84375 87.433594 87.84375 87.433594 85.4375 C 87.433594 83.027344 85.4375 81.027344 83.027344 81.027344 L 47.652344 81.027344 C 45.246094 81.027344 43.246094 83.027344 43.246094 85.4375 L 43.246094 253.367188 C 43.246094 255.777344 45.246094 257.777344 47.652344 257.777344 L 327.347656 257.777344 C 329.8125 257.777344 331.753906 255.777344 331.753906 253.367188 Z M 331.753906 253.367188 " fill-opacity="1" fill-rule="nonzero"/><path fill="#38b6ff" d="M 60.640625 271.703125 C 58.230469 271.703125 56.234375 273.699219 56.234375 276.109375 C 56.234375 278.515625 58.230469 280.515625 60.640625 280.515625 L 67.042969 280.515625 C 69.453125 280.515625 71.453125 278.515625 71.453125 276.109375 C 71.453125 273.699219 69.453125 271.703125 67.042969 271.703125 Z M 60.640625 271.703125 " fill-opacity="1" fill-rule="nonzero"/><path fill="#38b6ff" d="M 84.554688 271.703125 C 82.144531 271.703125 80.148438 273.699219 80.148438 276.109375 C 80.148438 278.515625 82.144531 280.515625 84.554688 280.515625 L 90.960938 280.515625 C 93.367188 280.515625 95.367188 278.515625 95.367188 276.109375 C 95.367188 273.699219 93.367188 271.703125 90.960938 271.703125 Z M 84.554688 271.703125 " fill-opacity="1" fill-rule="nonzero"/><path fill="#38b6ff" d="M 108.527344 271.703125 C 106.117188 271.703125 104.121094 273.699219 104.121094 276.109375 C 104.121094 278.515625 106.117188 280.515625 108.527344 280.515625 L 114.933594 280.515625 C 117.34375 280.515625 119.339844 278.515625 119.339844 276.109375 C 119.339844 273.699219 117.34375 271.703125 114.933594 271.703125 Z M 108.527344 271.703125 " fill-opacity="1" fill-rule="nonzero"/><path fill="#38b6ff" d="M 121.75 232.332031 C 121.75 234.742188 123.746094 236.738281 126.15625 236.738281 C 128.566406 236.738281 130.5625 234.742188 130.5625 232.332031 L 130.5625 200.898438 C 130.5625 198.488281 128.566406 196.488281 126.15625 196.488281 C 123.746094 196.488281 121.75 198.488281 121.75 200.898438 Z M 121.75 232.332031 " fill-opacity="1" fill-rule="nonzero"/><path fill="#38b6ff" d="M 126.15625 192.082031 C 128.566406 192.082031 130.5625 190.085938 130.5625 187.675781 L 130.5625 185.148438 C 130.5625 182.742188 128.566406 180.742188 126.15625 180.742188 C 123.746094 180.742188 121.75 182.742188 121.75 185.148438 L 121.75 187.675781 C 121.75 190.085938 123.746094 192.082031 126.15625 192.082031 Z M 126.15625 192.082031 " fill-opacity="1" fill-rule="nonzero"/><path fill="#38b6ff" d="M 172.632812 236.738281 C 175.042969 236.738281 177.039062 234.742188 177.039062 232.332031 L 177.039062 208.125 C 177.039062 199.488281 169.988281 192.4375 161.351562 192.4375 C 156.945312 192.4375 153.007812 194.257812 150.128906 197.195312 C 148.601562 195.609375 146.722656 194.316406 144.546875 193.492188 C 142.253906 192.613281 139.730469 193.726562 138.847656 196.019531 C 137.964844 198.3125 139.082031 200.839844 141.375 201.71875 C 143.84375 202.660156 145.546875 205.011719 145.722656 207.652344 C 145.722656 207.832031 145.664062 207.949219 145.664062 208.125 L 145.664062 232.332031 C 145.664062 234.742188 147.660156 236.738281 150.070312 236.738281 C 150.070312 236.738281 150.128906 236.738281 150.128906 236.738281 C 150.128906 236.738281 150.1875 236.738281 150.1875 236.738281 C 152.597656 236.738281 154.59375 234.742188 154.59375 232.332031 L 154.59375 208.125 C 154.59375 208.007812 154.59375 207.832031 154.535156 207.714844 C 154.769531 204.128906 157.652344 201.25 161.292969 201.25 C 165.054688 201.25 168.167969 204.304688 168.167969 208.125 L 168.167969 232.332031 C 168.226562 234.742188 170.167969 236.738281 172.632812 236.738281 Z M 172.632812 236.738281 " fill-opacity="1" fill-rule="nonzero"/><path fill="#38b6ff" d="M 203.246094 187.96875 C 204.597656 186.855469 206.363281 186.441406 208.535156 186.792969 C 210.886719 187.207031 213.175781 185.5625 213.589844 183.152344 C 214 180.742188 212.355469 178.511719 209.945312 178.097656 C 205.246094 177.335938 200.839844 178.449219 197.546875 181.273438 C 194.082031 184.210938 192.082031 188.851562 192.082031 193.964844 L 192.082031 199.015625 L 187.96875 199.015625 C 185.5625 199.015625 183.5625 201.015625 183.5625 203.421875 C 183.5625 205.832031 185.5625 207.832031 187.96875 207.832031 L 192.082031 207.832031 L 192.082031 232.332031 C 192.082031 234.742188 194.082031 236.738281 196.488281 236.738281 C 198.898438 236.738281 200.898438 234.742188 200.898438 232.332031 L 200.898438 207.832031 L 206.597656 207.832031 C 209.003906 207.832031 211.003906 205.832031 211.003906 203.421875 C 211.003906 201.015625 209.003906 199.015625 206.597656 199.015625 L 200.898438 199.015625 L 200.898438 193.964844 C 200.898438 191.4375 201.777344 189.261719 203.246094 187.96875 Z M 203.246094 187.96875 " fill-opacity="1" fill-rule="nonzero"/><path fill="#38b6ff" d="M 253.25 214.585938 C 253.25 202.367188 244.90625 192.4375 234.625 192.4375 C 224.339844 192.4375 215.996094 202.367188 215.996094 214.585938 C 215.996094 226.808594 224.339844 236.738281 234.625 236.738281 C 244.90625 236.738281 253.25 226.808594 253.25 214.585938 Z M 224.8125 214.585938 C 224.8125 207.359375 229.277344 201.25 234.625 201.25 C 239.972656 201.25 244.4375 207.359375 244.4375 214.585938 C 244.4375 221.816406 239.972656 227.925781 234.625 227.925781 C 229.277344 227.925781 224.8125 221.816406 224.8125 214.585938 Z M 224.8125 214.585938 " fill-opacity="1" fill-rule="nonzero"/><path fill="#38b6ff" d="M 106.179688 237.503906 L 107.765625 237.503906 C 110.171875 237.503906 112.171875 235.507812 112.171875 233.097656 C 112.171875 230.6875 110.171875 228.691406 107.765625 228.691406 L 106.179688 228.691406 C 103.769531 228.691406 101.769531 230.6875 101.769531 233.097656 C 101.769531 235.507812 103.710938 237.503906 106.179688 237.503906 Z M 106.179688 237.503906 " fill-opacity="1" fill-rule="nonzero"/><path fill="#38b6ff" d="M 264.769531 159.0625 C 263.828125 160 263.359375 161.351562 263.535156 162.703125 L 267.292969 194.785156 C 267.472656 196.488281 268.644531 197.898438 270.230469 198.429688 C 271.820312 199.015625 273.582031 198.605469 274.816406 197.371094 L 280.046875 192.140625 L 299.023438 211.121094 C 299.90625 212.003906 301.023438 212.414062 302.136719 212.414062 C 303.253906 212.414062 304.371094 212.003906 305.253906 211.121094 L 316.945312 199.429688 C 318.648438 197.722656 318.648438 194.902344 316.945312 193.199219 L 297.964844 174.21875 L 303.195312 168.992188 C 304.371094 167.816406 304.78125 166.054688 304.253906 164.40625 C 303.726562 162.820312 302.316406 161.644531 300.609375 161.46875 L 268.410156 157.828125 C 267.058594 157.710938 265.707031 158.121094 264.769531 159.0625 Z M 290.445312 169.285156 L 288.566406 171.164062 C 286.859375 172.867188 286.859375 175.691406 288.566406 177.394531 L 307.542969 196.371094 L 302.078125 201.835938 L 283.101562 182.859375 C 282.277344 182.035156 281.160156 181.566406 279.988281 181.566406 C 278.8125 181.566406 277.695312 182.035156 276.871094 182.859375 L 274.992188 184.738281 L 272.933594 167.226562 Z M 290.445312 169.285156 " fill-opacity="1" fill-rule="nonzero"/></svg>